<svg width="69" height="69" viewBox="0 0 69 69" fill="none" xmlns="http://www.w3.org/2000/svg">
<path d="M34.4023 4.67638C34.4528 4.67634 34.5034 4.67631 34.5554 4.67627C37.1922 4.67925 39.8147 5.08958 42.3164 5.9297C42.3776 5.9502 42.4388 5.9707 42.5019 5.99182C45.3796 6.96571 48.0787 8.43884 50.4023 10.4039C50.4555 10.4478 50.5087 10.4916 50.5634 10.5368C51.4406 11.2634 52.3171 12.0556 53.0522 12.9276C53.1352 13.0259 53.2195 13.1224 53.3049 13.2186C54.5232 14.5969 55.5535 16.1256 56.4398 17.7352C56.48 17.8079 56.48 17.8079 56.5209 17.8821C58.038 20.6529 58.9348 23.7141 59.2969 26.8453C59.3018 26.8864 59.3067 26.9276 59.3118 26.9699C59.4122 27.8253 59.4262 28.6767 59.4249 29.5373C59.4249 29.6438 59.4249 29.6438 59.4248 29.7525C59.4232 30.934 59.3689 32.0922 59.1891 33.2602C59.1833 33.2981 59.1776 33.336 59.1716 33.3751C58.8216 35.6723 58.1574 37.8852 57.1945 39.9985C57.1715 40.0495 57.1486 40.1006 57.1249 40.1532C56.4594 41.6263 55.6116 43.0058 54.6609 44.311C54.6386 44.3416 54.6163 44.3722 54.5933 44.4038C54.3056 44.7971 54.0036 45.1773 53.6906 45.5508C53.6671 45.579 53.6436 45.6072 53.6193 45.6362C52.8782 46.5217 52.0894 47.4086 51.2074 48.1568C51.0868 48.2601 50.9706 48.3677 50.8538 48.4752C50.5195 48.7764 50.1661 49.0505 49.8094 49.3242C49.7764 49.3497 49.7435 49.3752 49.7096 49.4015C45.8144 52.414 40.9968 54.242 34.5303 54.5632C34.4835 54.5632 34.4367 54.5632 34.3884 54.5631C28.8926 54.5528 23.4478 52.6863 18.5437 48.7852C18.5154 48.7614 18.487 48.7377 18.4577 48.7132C17.536 47.94 16.6244 47.1194 15.8484 46.1977C15.8024 46.145 15.7563 46.0923 15.7088 46.0381C14.4982 44.6518 13.4353 43.1351 12.5667 41.512C12.5096 41.4062 12.451 41.3014 12.3919 41.1968C10.9705 38.6458 10.1754 35.7565 9.75703 32.8828C9.74805 32.8244 9.73907 32.766 9.72981 32.7058C9.42627 30.6614 9.45309 28.4035 9.75703 26.3602C9.76628 26.295 9.77553 26.2298 9.78506 26.1626C10.1282 23.7865 10.7717 21.4413 11.798 19.2673C11.8613 19.1327 11.9231 18.9976 11.9849 18.8624C12.7351 17.2337 13.7077 15.689 14.8242 14.2852C14.8658 14.2329 14.9073 14.1807 14.9501 14.1268C15.0685 13.9807 15.1886 13.8363 15.3094 13.6922C15.3527 13.6395 15.3961 13.5867 15.4408 13.5324C16.1551 12.6688 16.9364 11.8131 17.7918 11.0868C17.9169 10.9797 18.0381 10.8687 18.1597 10.7577C18.4234 10.5205 18.6941 10.297 18.975 10.0805C19.0298 10.0382 19.0298 10.0382 19.0857 9.99499C20.4746 8.92687 21.9378 8.00965 23.5031 7.22345C23.5501 7.19969 23.5972 7.17592 23.6456 7.15143C24.4221 6.76155 25.22 6.44099 26.0367 6.14533C26.1223 6.11416 26.1223 6.11416 26.2097 6.08236C28.2626 5.34387 30.3881 4.9279 32.5594 4.74376C32.646 4.73602 32.646 4.73602 32.7344 4.72813C33.2902 4.68277 33.845 4.67674 34.4023 4.67638ZM34.0687 12.5602C33.7508 13.1311 33.4343 13.7028 33.1187 14.2751C33.1005 14.308 33.0823 14.341 33.0636 14.3749C32.9314 14.6145 32.7993 14.8541 32.6672 15.0938C31.7715 16.7182 31.7715 16.7182 31.3394 17.4948C31.1855 17.7714 31.0319 18.0481 30.8782 18.3248C30.6708 18.6982 30.4633 19.0715 30.2557 19.4448C29.8902 20.1021 29.5258 20.76 29.1627 21.4187C28.8703 21.9492 28.5766 22.4789 28.2821 23.0082C28.1059 23.3249 27.9304 23.642 27.7558 23.9597C26.7083 25.8657 26.7083 25.8657 26.2726 26.5286C25.6094 27.5461 25.1379 28.6693 24.9047 29.8641C24.8967 29.9039 24.8887 29.9437 24.8805 29.9848C24.4049 32.4577 24.9392 35.0653 26.313 37.1684C26.6057 37.5921 26.9222 37.9827 27.2698 38.3625C27.3661 38.4689 27.4583 38.5771 27.5495 38.6879C27.727 38.896 27.9289 39.0694 28.1391 39.2438C28.1783 39.277 28.2176 39.3102 28.258 39.3444C29.6819 40.5204 31.3782 41.2514 33.2062 41.5078C33.2618 41.5159 33.2618 41.5159 33.3184 41.5242C34.3399 41.6567 35.4334 41.605 36.4406 41.4C36.4852 41.3911 36.5297 41.3821 36.5756 41.3729C38.259 41.0211 39.827 40.2088 41.0766 39.0281C41.1493 38.9661 41.2223 38.9043 41.2956 38.8428C41.9743 38.2485 42.5165 37.4888 42.9633 36.7102C42.9824 36.6777 43.0015 36.6453 43.0211 36.6118C44.1203 34.7297 44.5881 32.2854 44.1492 30.1336C44.1393 30.0846 44.1295 30.0355 44.1193 29.985C43.8113 28.5 43.2453 27.1342 42.3164 25.9289C42.2805 25.8816 42.2445 25.8343 42.2075 25.7855C41.8072 25.271 41.3689 24.7758 40.8609 24.3656C40.8343 24.3438 40.8077 24.3219 40.7803 24.2994C40.3434 23.9409 39.8976 23.6218 39.4055 23.3414C39.3587 23.3147 39.3587 23.3147 39.311 23.2874C38.6237 22.8973 37.9119 22.5885 37.1515 22.3711C37.1106 22.3592 37.0697 22.3474 37.0275 22.3352C36.758 22.2593 36.758 22.2593 36.4945 22.3172C36.4113 22.4241 36.4113 22.4241 36.3448 22.5619C36.3175 22.6137 36.2902 22.6655 36.262 22.7189C36.2331 22.7753 36.2042 22.8318 36.1745 22.89C36.1118 23.0091 36.0491 23.1281 35.9862 23.2471C35.9543 23.3079 35.9223 23.3687 35.8894 23.4313C35.7447 23.703 35.5927 23.9703 35.44 24.2376C35.1011 24.8332 34.7722 25.434 34.4461 26.0367C34.6412 26.1668 34.816 26.1812 35.0424 26.2119C36.4778 26.4313 37.8179 27.1504 38.7083 28.3166C39.6701 29.6631 40.0514 31.194 39.7992 32.8435C39.7554 33.0773 39.6946 33.3035 39.6211 33.5297C39.6042 33.582 39.6042 33.582 39.587 33.6354C39.1081 35.0594 38.1037 36.1836 36.7716 36.8696C35.3984 37.5503 33.8092 37.6509 32.3526 37.1705C30.862 36.6406 29.738 35.5872 29.0499 34.1742C28.9146 33.8789 28.8188 33.5729 28.732 33.2602C28.7148 33.1985 28.6976 33.1368 28.6798 33.0732C27.9898 30.1854 30.0224 27.7087 31.4195 25.3853C31.8056 24.7432 32.1906 24.1004 32.5728 23.456C32.6002 23.4099 32.6002 23.4099 32.6281 23.3628C32.8311 23.0207 33.0318 22.6776 33.2287 22.332C33.4429 21.9565 33.6672 21.5931 33.9104 21.2357C34.5714 20.2611 35.0848 19.2877 35.2547 18.1125C35.2618 18.0676 35.2689 18.0226 35.2762 17.9763C35.5029 16.2326 35.1857 14.1642 34.2305 12.668C34.1771 12.6324 34.1237 12.5968 34.0687 12.5602Z" fill="#030A40"/>
<path d="M36.117 43.9536C36.6092 44.3406 36.9341 44.9365 37.0336 45.5508C37.1018 46.3053 36.9264 46.9807 36.4524 47.5758C35.957 48.1192 35.355 48.4111 34.6211 48.4746C33.891 48.4939 33.2445 48.2509 32.7057 47.7555C32.4472 47.482 32.2703 47.192 32.1281 46.8445C32.1109 46.8025 32.0937 46.7605 32.0759 46.7171C31.8559 46.0947 31.9268 45.4496 32.182 44.85C32.5588 44.1061 33.1181 43.7317 33.8767 43.4282C34.7039 43.2831 35.4327 43.4836 36.117 43.9536Z" fill="#0090FD"/>
<path d="M21.1852 56.1164C21.5943 56.1164 22.0035 56.1164 22.425 56.1164C22.4258 56.2396 22.4266 56.3628 22.4274 56.4897C22.4301 56.8981 22.4337 57.3065 22.4377 57.7148C22.4401 57.9623 22.4422 58.2097 22.4437 58.4572C22.4451 58.6963 22.4473 58.9353 22.45 59.1744C22.4509 59.2653 22.4515 59.3562 22.4518 59.4472C22.4534 60.2236 22.4534 60.2236 22.7552 60.9309C23.0102 61.1693 23.2865 61.2999 23.6379 61.3183C23.9904 61.2999 24.2674 61.1697 24.5206 60.9275C24.7255 60.6141 24.8436 60.3242 24.7969 59.9437C24.7361 59.776 24.6618 59.6176 24.5813 59.4586C24.5637 59.4195 24.5462 59.3803 24.5282 59.34C24.4492 59.2 24.3532 59.1849 24.2039 59.1351C24.1608 59.1072 24.1608 59.1072 24.1167 59.0787C23.9194 58.9998 23.7268 59.0161 23.5166 59.0206C23.4739 59.0211 23.4311 59.0216 23.3871 59.0221C23.282 59.0233 23.1769 59.0253 23.0719 59.0273C23.007 58.9154 22.9432 58.8031 22.8798 58.6904C22.8522 58.643 22.8522 58.643 22.8239 58.5946C22.7496 58.4609 22.6939 58.3584 22.6971 58.2034C22.7646 58.0818 22.8281 58.0502 22.954 57.993C22.991 57.9756 23.028 57.9581 23.0662 57.9402C23.5776 57.738 24.1962 57.7923 24.7009 57.9856C25.3678 58.3032 25.7788 58.7723 26.0367 59.4586C26.1965 60.0196 26.152 60.7251 25.875 61.2375C25.5079 61.86 25.0584 62.2025 24.3791 62.4403C23.7983 62.5597 23.2643 62.5047 22.7484 62.2078C22.6399 62.1232 22.5653 62.0463 22.4789 61.9383C22.4672 62.0433 22.4672 62.0433 22.4553 62.1505C22.4317 62.3628 22.4317 62.3628 22.3711 62.4234C22.2876 62.4288 22.2038 62.4305 22.1201 62.4306C22.0441 62.4307 22.0441 62.4307 21.9666 62.4308C21.8866 62.4305 21.8866 62.4305 21.8051 62.4302C21.7518 62.4304 21.6985 62.4306 21.6436 62.4308C21.5929 62.4307 21.5423 62.4307 21.4901 62.4306C21.4433 62.4305 21.3965 62.4305 21.3482 62.4304C21.2391 62.4234 21.2391 62.4234 21.1852 62.3695C21.18 62.2884 21.1786 62.207 21.1787 62.1256C21.1786 62.073 21.1785 62.0203 21.1785 61.966C21.1786 61.9077 21.1788 61.8494 21.179 61.7894C21.179 61.7284 21.179 61.6674 21.179 61.6045C21.1791 61.4018 21.1795 61.1991 21.1799 60.9964C21.18 60.8563 21.1801 60.7161 21.1801 60.576C21.1803 60.2442 21.1807 59.9124 21.1813 59.5806C21.1819 59.2029 21.1822 58.8253 21.1824 58.4476C21.183 57.6705 21.184 56.8935 21.1852 56.1164Z" fill="#040B40"/>
<path d="M29.7023 58.057C29.7394 58.0816 29.7766 58.1061 29.8148 58.1314C29.9049 58.1939 29.9926 58.2599 30.0797 58.3266C30.0786 58.2654 30.0775 58.2043 30.0763 58.1413C30.0797 57.9492 30.0797 57.9492 30.1336 57.8953C30.2217 57.8906 30.31 57.8896 30.3983 57.8901C30.4516 57.8902 30.5049 57.8904 30.5599 57.8906C30.616 57.891 30.6721 57.8915 30.7299 57.892C30.8144 57.8923 30.8144 57.8923 30.9006 57.8927C31.0402 57.8933 31.1799 57.8942 31.3195 57.8953C31.3208 58.4778 31.3217 59.0602 31.3223 59.6426C31.3226 59.913 31.323 60.1835 31.3236 60.4539C31.3242 60.7146 31.3245 60.9754 31.3246 61.2361C31.3247 61.3358 31.3249 61.4355 31.3252 61.5352C31.3256 61.6744 31.3257 61.8135 31.3256 61.9527C31.3258 61.9943 31.326 62.036 31.3262 62.0789C31.3257 62.3634 31.3257 62.3634 31.2656 62.4234C31.1821 62.4288 31.0983 62.4305 31.0146 62.4306C30.9386 62.4307 30.9386 62.4307 30.8611 62.4308C30.7812 62.4305 30.7812 62.4305 30.6996 62.4302C30.6463 62.4304 30.593 62.4306 30.5381 62.4308C30.4874 62.4307 30.4368 62.4307 30.3846 62.4306C30.3378 62.4305 30.291 62.4305 30.2428 62.4304C30.1336 62.4234 30.1336 62.4234 30.0797 62.3695C30.0742 62.2905 30.0724 62.2111 30.072 62.1319C30.0715 62.056 30.0715 62.056 30.0709 61.9786C30.0707 61.9235 30.0704 61.8683 30.0702 61.8115C30.069 61.6955 30.0677 61.5795 30.0663 61.4634C30.0644 61.28 30.0628 61.0965 30.0621 60.913C30.0613 60.7363 30.0591 60.5597 30.0567 60.383C30.0568 60.3285 30.0569 60.274 30.057 60.2179C30.0504 59.8295 29.982 59.5902 29.7122 59.299C29.6812 59.2738 29.6501 59.2487 29.6181 59.2228C29.5869 59.1968 29.5557 59.1708 29.5236 59.144C29.2403 58.9481 28.8431 58.9952 28.5164 59.0274C28.1962 59.1452 27.97 59.3672 27.8171 59.6704C27.6782 60.0083 27.7013 60.3004 27.8156 60.6445C27.9207 60.8055 27.9207 60.8055 28.0312 60.9141C28.0312 60.9496 28.0312 60.9852 28.0312 61.0219C28.1025 61.059 28.1746 61.0945 28.2469 61.1297C28.3036 61.1586 28.3603 61.1875 28.4187 61.2173C28.7326 61.3509 29.0535 61.3083 29.3789 61.2375C29.4307 61.3138 29.4823 61.3902 29.5339 61.4666C29.5627 61.5091 29.5914 61.5517 29.6211 61.5955C29.8076 61.8874 29.8076 61.8874 29.8169 62.0731C29.7333 62.2589 29.6189 62.2979 29.4385 62.3805C28.9263 62.5744 28.3138 62.5335 27.8156 62.3156C27.1329 61.9805 26.748 61.5058 26.468 60.8063C26.3114 60.1001 26.4184 59.4265 26.7914 58.8117C27.0968 58.3699 27.5781 58.0152 28.0972 57.865C28.6327 57.7806 29.2358 57.7464 29.7023 58.057Z" fill="#040A40"/>
<path d="M43.7146 57.8178C43.7715 57.8186 43.7715 57.8186 43.8297 57.8193C44.2041 57.8318 44.4278 57.9029 44.6897 58.1674C44.7832 58.2717 44.8719 58.3777 44.9578 58.4883C44.9788 58.4642 44.9998 58.4401 45.0214 58.4152C45.3227 58.0897 45.6221 57.8748 46.0696 57.8155C46.5668 57.797 46.9342 57.8708 47.3189 58.192C47.5621 58.4425 47.6626 58.7521 47.7609 59.0813C47.7705 59.1134 47.7801 59.1455 47.79 59.1786C47.8202 59.3223 47.8217 59.4556 47.8218 59.6026C47.822 59.6639 47.8221 59.7252 47.8223 59.7884C47.8222 59.8873 47.8222 59.8873 47.822 59.9882C47.822 60.056 47.8221 60.1237 47.8221 60.1936C47.8222 60.3367 47.8221 60.4798 47.8219 60.623C47.8216 60.8068 47.8217 60.9906 47.8221 61.1744C47.8223 61.3495 47.8221 61.5246 47.822 61.6997C47.8221 61.766 47.8222 61.8322 47.8223 61.9005C47.8221 61.9917 47.8221 61.9917 47.8218 62.0848C47.8218 62.1386 47.8217 62.1924 47.8217 62.2479C47.8148 62.3695 47.8148 62.3695 47.7609 62.4235C47.6728 62.4281 47.5845 62.4292 47.4962 62.4287C47.4429 62.4285 47.3896 62.4284 47.3346 62.4282C47.2785 62.4277 47.2224 62.4273 47.1646 62.4268C47.1083 62.4266 47.0519 62.4263 46.9939 62.4261C46.8543 62.4254 46.7146 62.4246 46.575 62.4235C46.5272 62.2598 46.5153 62.1162 46.5175 61.946C46.5183 61.8683 46.5183 61.8683 46.5191 61.789C46.5199 61.7333 46.5207 61.6777 46.5215 61.6203C46.5224 61.5021 46.5234 61.3839 46.5242 61.2657C46.5259 61.0796 46.5278 60.8936 46.5303 60.7075C46.5326 60.5277 46.5339 60.348 46.535 60.1682C46.536 60.1128 46.537 60.0574 46.538 60.0003C46.5391 59.7076 46.5299 59.4932 46.3594 59.243C46.1778 59.1121 46.0371 59.0676 45.8169 59.0813C45.5902 59.1204 45.4776 59.2234 45.3351 59.4047C45.2818 59.5648 45.2733 59.674 45.271 59.8412C45.2697 59.9251 45.2697 59.9251 45.2683 60.0107C45.2676 60.0711 45.2668 60.1314 45.2661 60.1935C45.2651 60.2554 45.2641 60.3172 45.2631 60.381C45.2588 60.6462 45.2552 60.9115 45.2515 61.1767C45.2487 61.3701 45.2456 61.5634 45.2425 61.7568C45.2418 61.8173 45.241 61.8778 45.2403 61.9402C45.2389 62.0236 45.2389 62.0236 45.2375 62.1087C45.2365 62.1825 45.2365 62.1825 45.2355 62.2577C45.2273 62.3695 45.2273 62.3695 45.1734 62.4235C45.0853 62.4281 44.997 62.4292 44.9087 62.4287C44.8554 62.4285 44.8021 62.4284 44.7471 62.4282C44.691 62.4277 44.6349 62.4273 44.5771 62.4268C44.5208 62.4266 44.4644 62.4263 44.4064 62.4261C44.2668 62.4254 44.1271 62.4246 43.9875 62.4235C43.9873 62.3877 43.9871 62.352 43.9869 62.3151C43.9846 61.9426 43.9809 61.5701 43.9763 61.1975C43.9748 61.0586 43.9736 60.9196 43.9729 60.7806C43.9717 60.5807 43.9692 60.3808 43.9664 60.1809C43.9664 60.1189 43.9663 60.0569 43.9662 59.993C43.9601 59.6585 43.9494 59.4402 43.718 59.1891C43.607 59.1462 43.607 59.1462 43.4889 59.1385C43.2931 59.0864 43.2093 59.0106 43.1016 58.8454C43.0599 58.7731 43.0194 58.7001 42.9801 58.6264C42.9605 58.5903 42.941 58.5542 42.9208 58.5171C42.8484 58.3707 42.7951 58.2599 42.8207 58.0956C43.0625 57.8434 43.3815 57.8127 43.7146 57.8178Z" fill="#040B40"/>
<path d="M38.4217 57.8212C38.4644 57.8211 38.5071 57.8211 38.5512 57.821C38.8872 57.827 39.1637 57.8906 39.4594 58.057C39.4282 58.3081 39.3191 58.5027 39.1932 58.7174C39.1738 58.7517 39.1544 58.786 39.1344 58.8214C38.9883 59.0742 38.9883 59.0742 38.8664 59.1352C38.8361 59.119 38.8058 59.1028 38.7746 59.0861C38.5065 58.9589 38.1847 58.9957 37.8961 59.0273C37.5729 59.1469 37.3544 59.3727 37.1911 59.6734C37.1161 59.9187 37.1231 60.1594 37.121 60.4146C37.1201 60.4703 37.1192 60.526 37.1182 60.5835C37.1153 60.761 37.1132 60.9386 37.1111 61.1162C37.1087 61.2946 37.1062 61.4729 37.1034 61.6513C37.1017 61.7622 37.1002 61.8731 37.0991 61.9841C37.0983 62.0339 37.0976 62.0838 37.0969 62.1351C37.0963 62.1792 37.0958 62.2233 37.0953 62.2687C37.0875 62.3695 37.0875 62.3695 37.0336 62.4234C36.9461 62.4288 36.8584 62.4305 36.7708 62.4306C36.7177 62.4307 36.6646 62.4307 36.6099 62.4308C36.5541 62.4306 36.4982 62.4304 36.4406 62.4302C36.3568 62.4305 36.3568 62.4305 36.2713 62.4308C36.2182 62.4307 36.1651 62.4307 36.1105 62.4306C36.0614 62.4305 36.0123 62.4305 35.9618 62.4304C35.8477 62.4234 35.8477 62.4234 35.7938 62.3695C35.7883 62.232 35.7864 62.096 35.7868 61.9585C35.7867 61.9155 35.7866 61.8724 35.7865 61.8281C35.7863 61.6851 35.7864 61.5422 35.7866 61.3992C35.7866 61.3003 35.7865 61.2014 35.7864 61.1025C35.7864 60.895 35.7865 60.6874 35.7867 60.4799C35.787 60.2132 35.7869 59.9465 35.7865 59.6799C35.7863 59.4756 35.7864 59.2713 35.7865 59.067C35.7866 58.9686 35.7865 58.8703 35.7864 58.7719C35.7863 58.6347 35.7865 58.4975 35.7868 58.3603C35.7866 58.2987 35.7866 58.2987 35.7864 58.2358C35.7876 57.9554 35.7876 57.9554 35.8477 57.8953C35.9397 57.8906 36.032 57.8895 36.1241 57.8901C36.2078 57.8903 36.2078 57.8903 36.2931 57.8906C36.3518 57.891 36.4105 57.8915 36.4709 57.8919C36.5593 57.8923 36.5593 57.8923 36.6494 57.8927C36.7954 57.8933 36.9415 57.8942 37.0875 57.8953C37.1053 58.0198 37.1231 58.1444 37.1414 58.2727C37.1727 58.2506 37.2039 58.2285 37.2362 58.2057C37.2783 58.1767 37.3204 58.1476 37.3638 58.1177C37.405 58.0889 37.4463 58.0601 37.4889 58.0305C37.7945 57.8501 38.0751 57.8206 38.4217 57.8212Z" fill="#040B40"/>
<path d="M34.4865 57.8246C34.5293 57.8248 34.572 57.8249 34.6161 57.8251C34.9261 57.8309 35.2492 57.8451 35.5242 58.0031C35.5781 58.1648 35.5781 58.1648 35.5348 58.2673C35.5005 58.3236 35.5005 58.3236 35.4655 58.3811C35.4287 58.4423 35.4287 58.4423 35.3912 58.5048C35.3651 58.5472 35.3389 58.5895 35.312 58.6332C35.286 58.6761 35.26 58.7191 35.2333 58.7634C35.169 58.8697 35.1043 58.9756 35.0391 59.0813C34.9896 59.0722 34.9401 59.0632 34.8891 59.0539C34.3264 58.9605 33.9973 58.9595 33.5221 59.2904C33.2154 59.6402 33.1759 60.0297 33.1871 60.4778C33.1875 60.532 33.1879 60.5862 33.1884 60.6421C33.1899 60.8136 33.193 60.9851 33.1961 61.1566C33.1984 61.3297 33.2004 61.5028 33.2021 61.6758C33.2033 61.7832 33.2049 61.8905 33.2068 61.9978C33.2075 62.0459 33.2082 62.094 33.2089 62.1435C33.2097 62.186 33.2105 62.2284 33.2113 62.2722C33.2062 62.3695 33.2062 62.3695 33.1523 62.4234C33.0609 62.4288 32.9693 62.4305 32.8778 62.4306C32.8222 62.4307 32.7667 62.4307 32.7095 62.4308C32.6218 62.4305 32.6218 62.4305 32.5324 62.4302C32.474 62.4304 32.4155 62.4306 32.3553 62.4308C32.2998 62.4307 32.2443 62.4307 32.1871 62.4306C32.1358 62.4305 32.0844 62.4305 32.0316 62.4304C31.9125 62.4234 31.9125 62.4234 31.8586 62.3695C31.8532 62.232 31.8512 62.096 31.8516 61.9585C31.8515 61.9155 31.8514 61.8724 31.8513 61.8281C31.8511 61.6851 31.8512 61.5422 31.8514 61.3992C31.8514 61.3003 31.8513 61.2014 31.8513 61.1025C31.8512 60.895 31.8513 60.6874 31.8516 60.4799C31.8519 60.2132 31.8517 59.9465 31.8514 59.6799C31.8512 59.4756 31.8512 59.2713 31.8514 59.067C31.8514 58.9686 31.8514 58.8703 31.8512 58.7719C31.8511 58.6347 31.8513 58.4975 31.8516 58.3603C31.8514 58.2987 31.8514 58.2987 31.8513 58.2359C31.8524 57.9554 31.8524 57.9554 31.9125 57.8953C32.0045 57.8906 32.0968 57.8895 32.189 57.8901C32.2726 57.8903 32.2726 57.8903 32.358 57.8906C32.4166 57.891 32.4753 57.8915 32.5358 57.8919C32.6241 57.8923 32.6241 57.8923 32.7142 57.8927C32.8603 57.8933 33.0063 57.8942 33.1523 57.8953C33.1523 58.0376 33.1523 58.1799 33.1523 58.3266C33.1875 58.3006 33.2227 58.2746 33.2589 58.2478C33.306 58.2138 33.3531 58.1797 33.4017 58.1446C33.4479 58.1109 33.4942 58.0771 33.5419 58.0423C33.8516 57.8495 34.1312 57.8221 34.4865 57.8246Z" fill="#040A40"/>
<path d="M41.4 57.8953C41.6055 57.8938 41.811 57.8928 42.0166 57.8919C42.0752 57.8915 42.1339 57.891 42.1944 57.8906C42.2502 57.8904 42.3059 57.8902 42.3634 57.89C42.415 57.8898 42.4667 57.8895 42.5199 57.8892C42.6399 57.8953 42.6399 57.8953 42.6938 57.9492C42.6992 58.0867 42.7011 58.2227 42.7007 58.3603C42.7008 58.4033 42.7009 58.4463 42.701 58.4907C42.7013 58.6336 42.7011 58.7766 42.7009 58.9195C42.701 59.0184 42.701 59.1173 42.7011 59.2162C42.7012 59.4238 42.701 59.6313 42.7008 59.8389C42.7005 60.1056 42.7007 60.3722 42.701 60.6389C42.7012 60.8432 42.7011 61.0475 42.701 61.2518C42.7009 61.3501 42.701 61.4485 42.7011 61.5469C42.7012 61.6841 42.701 61.8213 42.7007 61.9585C42.7008 61.9995 42.701 62.0406 42.7011 62.0829C42.6999 62.3634 42.6999 62.3634 42.6399 62.4234C42.5524 62.4288 42.4647 62.4305 42.3771 62.4306C42.324 62.4307 42.2709 62.4307 42.2162 62.4308C42.1603 62.4306 42.1044 62.4304 42.0469 62.4302C41.9631 62.4305 41.9631 62.4305 41.8776 62.4308C41.8245 62.4307 41.7714 62.4307 41.7167 62.4306C41.6676 62.4305 41.6186 62.4305 41.568 62.4304C41.4539 62.4234 41.4539 62.4234 41.4 62.3695C41.3949 62.2301 41.3932 62.0921 41.3939 61.9527C41.3939 61.909 41.3939 61.8654 41.3939 61.8204C41.3939 61.6755 41.3943 61.5305 41.3947 61.3855C41.3948 61.2853 41.3949 61.1851 41.395 61.0848C41.3952 60.8205 41.3957 60.5561 41.3963 60.2917C41.3969 60.0222 41.3971 59.7527 41.3974 59.4831C41.398 58.9539 41.3989 58.4246 41.4 57.8953Z" fill="#040A3F"/>
<path d="M39.9917 57.8882C40.0448 57.8881 40.0979 57.888 40.1526 57.8879C40.2084 57.8881 40.2643 57.8884 40.3219 57.8886C40.4057 57.8883 40.4057 57.8883 40.4912 57.8879C40.5443 57.888 40.5973 57.8881 40.652 57.8882C40.7011 57.8882 40.7502 57.8883 40.8007 57.8883C40.9148 57.8953 40.9148 57.8953 40.9687 57.9492C40.9742 58.0867 40.9761 58.2227 40.9757 58.3603C40.9758 58.4033 40.9759 58.4463 40.976 58.4907C40.9762 58.6336 40.9761 58.7766 40.9759 58.9195C40.9759 59.0184 40.976 59.1173 40.9761 59.2162C40.9761 59.4238 40.976 59.6313 40.9758 59.8389C40.9755 60.1056 40.9756 60.3722 40.976 60.6389C40.9762 60.8432 40.9761 61.0475 40.976 61.2518C40.9759 61.3501 40.976 61.4485 40.9761 61.5469C40.9762 61.6841 40.976 61.8213 40.9757 61.9585C40.9758 61.9995 40.9759 62.0406 40.976 62.0829C40.9749 62.3634 40.9749 62.3634 40.9148 62.4234C40.8274 62.4288 40.7397 62.4305 40.652 62.4306C40.599 62.4307 40.5459 62.4307 40.4912 62.4308C40.4353 62.4306 40.3794 62.4304 40.3219 62.4302C40.2381 62.4305 40.2381 62.4305 40.1526 62.4308C40.0995 62.4307 40.0464 62.4307 39.9917 62.4306C39.9426 62.4305 39.8936 62.4305 39.843 62.4304C39.7289 62.4234 39.7289 62.4234 39.675 62.3695C39.6696 62.232 39.6677 62.096 39.668 61.9585C39.6679 61.9155 39.6678 61.8724 39.6677 61.8281C39.6675 61.6851 39.6677 61.5422 39.6678 61.3992C39.6678 61.3003 39.6677 61.2014 39.6677 61.1025C39.6676 60.895 39.6677 60.6874 39.668 60.4799C39.6683 60.2132 39.6681 59.9465 39.6678 59.6799C39.6676 59.4756 39.6676 59.2713 39.6678 59.067C39.6678 58.9686 39.6678 58.8702 39.6676 58.7719C39.6675 58.6347 39.6677 58.4975 39.668 58.3603C39.6679 58.2987 39.6679 58.2987 39.6677 58.2358C39.669 57.9169 39.6753 57.8885 39.9917 57.8882Z" fill="#040B40"/>
<path d="M39.675 56.1164C39.8805 56.1149 40.086 56.1139 40.2915 56.113C40.3502 56.1126 40.4089 56.1121 40.4694 56.1117C40.5251 56.1115 40.5809 56.1113 40.6384 56.1111C40.69 56.1109 40.7417 56.1106 40.7949 56.1103C40.9148 56.1164 40.9148 56.1164 40.9687 56.1703C40.9741 56.246 40.9758 56.3219 40.9759 56.3977C40.976 56.4664 40.976 56.4664 40.9761 56.5365C40.9759 56.5847 40.9757 56.6328 40.9755 56.6824C40.9758 56.7547 40.9758 56.7547 40.9761 56.8284C40.976 56.8741 40.976 56.9199 40.9759 56.9671C40.9758 57.0094 40.9758 57.0517 40.9757 57.0953C40.9687 57.1945 40.9687 57.1945 40.9148 57.2484C40.8274 57.2538 40.7397 57.2555 40.652 57.2556C40.599 57.2557 40.5459 57.2557 40.4912 57.2558C40.4353 57.2556 40.3794 57.2554 40.3219 57.2552C40.2381 57.2555 40.2381 57.2555 40.1526 57.2558C40.0995 57.2557 40.0464 57.2557 39.9917 57.2556C39.9426 57.2555 39.8936 57.2555 39.843 57.2554C39.7289 57.2484 39.7289 57.2484 39.675 57.1945C39.6703 57.1143 39.6692 57.0338 39.6697 56.9534C39.6699 56.905 39.6701 56.8565 39.6703 56.8066C39.6707 56.7556 39.6712 56.7046 39.6716 56.6521C39.6719 56.6009 39.6721 56.5497 39.6724 56.497C39.673 56.3701 39.6739 56.2433 39.675 56.1164Z" fill="#040B40"/>
<path d="M36.4945 22.2094C36.8679 22.2332 37.2021 22.2973 37.5558 22.4183C37.6041 22.4347 37.6523 22.4511 37.702 22.468C39.3528 23.0506 40.9438 24.0655 42.0469 25.4438C42.087 25.4926 42.1271 25.5415 42.1684 25.5918C42.9296 26.5366 43.4954 27.6093 43.8864 28.7556C43.903 28.8038 43.9196 28.852 43.9367 28.9017C43.9587 28.9694 43.9587 28.9694 43.9812 29.0384C43.9942 29.0782 44.0072 29.118 44.0206 29.159C44.0441 29.2855 44.0274 29.3655 43.9875 29.4867C43.9773 29.4535 43.967 29.4202 43.9565 29.3859C43.4724 27.8317 42.7878 26.2792 41.5836 25.1403C41.5078 25.0664 41.5078 25.0664 41.4034 24.9316C40.8857 24.3041 40.104 23.7933 39.4055 23.3953C39.3743 23.3775 39.3431 23.3596 39.311 23.3413C38.5228 22.894 37.4748 22.3172 36.5484 22.3172C36.4574 22.3947 36.4574 22.3947 36.3867 22.4789C36.4223 22.39 36.4579 22.301 36.4945 22.2094Z" fill="#00002C"/>
<path d="M36.3328 22.4789C36.3595 22.5323 36.3595 22.5323 36.3867 22.5867C36.3171 22.7378 36.2437 22.8821 36.1643 23.0281C36.1401 23.0734 36.1159 23.1187 36.0909 23.1653C35.8719 23.5721 35.6444 23.9742 35.4158 24.3757C35.1032 24.9254 34.8009 25.4806 34.5 26.0367C34.5507 26.0468 34.5507 26.0468 34.6024 26.057C35.5681 26.249 36.4682 26.4531 37.3031 27.007C37.2497 27.0337 37.2497 27.0337 37.1953 27.0609C37.0631 26.9993 36.9362 26.9345 36.8079 26.8655C36.1387 26.5216 35.5034 26.3373 34.7583 26.2517C34.7116 26.2461 34.6648 26.2406 34.6166 26.2349C34.5747 26.2304 34.5327 26.2259 34.4894 26.2213C34.4413 26.21 34.4413 26.21 34.3922 26.1984C34.3744 26.1629 34.3566 26.1273 34.3383 26.0906C34.399 25.9573 34.4633 25.8314 34.5337 25.7032C34.5555 25.6628 34.5772 25.6224 34.5997 25.5808C34.8094 25.1942 35.0273 24.8122 35.2451 24.43C35.5185 23.9485 35.781 23.4615 36.0414 22.9729C36.0868 22.8879 36.0868 22.8879 36.1332 22.8011C36.1601 22.7505 36.1869 22.7 36.2146 22.6479C36.2789 22.5328 36.2789 22.5328 36.3328 22.4789Z" fill="#00002C"/>
</svg>
